{
  "accessors": [
    {
      "bufferView": 2,
      "componentType": 5126,
      "count": 1336,
      "max": [
        23.287113189697266,
        57.26981735229492,
        23.603464126586914
      ],
      "min": [
        -23.2286376953125,
        56.40104293823242,
        -22.91261100769043
      ],
      "type": "VEC3"
    },
    {
      "bufferView": 2,
      "byteOffset": 16032,
      "componentType": 5126,
      "count": 1336,
      "max": [
        0.9916490316390991,
        1.0,
        0.9912518262863159
      ],
      "min": [
        -0.9900311827659607,
        -0.9994080662727356,
        -0.9912518262863159
      ],
      "type": "VEC3"
    },
    {
      "bufferView": 1,
      "componentType": 5126,
      "count": 1336,
      "max": [
        0.999297022819519,
        0.9997040033340454
      ],
      "min": [
        0.0007032399880699813,
        0.00029577998793683946
      ],
      "type": "VEC2"
    },
    {
      "bufferView": 0,
      "componentType": 5125,
      "count": 4863,
      "type": "SCALAR"
    },
    {
      "bufferView": 2,
      "byteOffset": 32064,
      "componentType": 5126,
      "count": 392,
      "max": [
        24.850910186767578,
        57.0184211730957,
        25.165939331054688
      ],
      "min": [
        -24.78985595703125,
        55.572086334228516,
        -24.475086212158203
      ],
      "type": "VEC3"
    },
    {
      "bufferView": 2,
      "byteOffset": 36768,
      "componentType": 5126,
      "count": 392,
      "max": [
        0.9916490316390991,
        0.9434295892715454,
        0.9912518262863159
      ],
      "min": [
        -0.9900311827659607,
        0.12891091406345367,
        -0.9912518262863159
      ],
      "type": "VEC3"
    },
    {
      "bufferView": 1,
      "byteOffset": 10688,
      "componentType": 5126,
      "count": 392,
      "max": [
        0.3814539909362793,
        1.0
      ],
      "min": [
        0.083228200674057,
        0.0
      ],
      "type": "VEC2"
    },
    {
      "bufferView": 0,
      "byteOffset": 19452,
      "componentType": 5125,
      "count": 1650,
      "type": "SCALAR"
    },
    {
      "bufferView": 2,
      "byteOffset": 41472,
      "componentType": 5126,
      "count": 672,
      "max": [
        27.03244972229004,
        60.56769943237305,
        27.34560775756836
      ],
      "min": [
        -26.967727661132813,
        55.54148483276367,
        -26.654754638671875
      ],
      "type": "VEC3"
    },
    {
      "bufferView": 2,
      "byteOffset": 49536,
      "componentType": 5126,
      "count": 672,
      "max": [
        0.9992107152938843,
        0.9929227828979492,
        0.9988040924072266
      ],
      "min": [
        -0.9975799918174744,
        -0.981810450553894,
        -0.9988043308258057
      ],
      "type": "VEC3"
    },
    {
      "bufferView": 1,
      "byteOffset": 13824,
      "componentType": 5126,
      "count": 672,
      "max": [
        1.0,
        1.0
      ],
      "min": [
        0.2148589938879013,
        0.0
      ],
      "type": "VEC2"
    },
    {
      "bufferView": 0,
      "byteOffset": 26052,
      "componentType": 5125,
      "count": 3300,
      "type": "SCALAR"
    },
    {
      "bufferView": 2,
      "byteOffset": 57600,
      "componentType": 5126,
      "count": 336,
      "max": [
        26.006349563598633,
        60.58028793334961,
        26.320417404174805
      ],
      "min": [
        -25.94341278076172,
        57.0184211730957,
        -25.62956428527832
      ],
      "type": "VEC3"
    },
    {
      "bufferView": 2,
      "byteOffset": 61632,
      "componentType": 5126,
      "count": 336,
      "max": [
        0.9583103060722351,
        0.4206753671169281,
        0.9595140218734741
      ],
      "min": [
        -0.9598744511604309,
        0.2803236246109009,
        -0.9595140218734741
      ],
      "type": "VEC3"
    },
    {
      "bufferView": 1,
      "byteOffset": 19200,
      "componentType": 5126,
      "count": 336,
      "max": [
        0.6977660059928894,
        1.0
      ],
      "min": [
        0.3814539909362793,
        0.0
      ],
      "type": "VEC2"
    },
    {
      "bufferView": 0,
      "byteOffset": 39252,
      "componentType": 5125,
      "count": 1650,
      "type": "SCALAR"
    },
    {
      "bufferView": 2,
      "byteOffset": 65664,
      "componentType": 5126,
      "count": 336,
      "max": [
        26.976308822631836,
        60.883052825927734,
        27.289588928222656
      ],
      "min": [
        -26.911685943603516,
        60.56769943237305,
        -26.598735809326172
      ],
      "type": "VEC3"
    },
    {
      "bufferView": 2,
      "byteOffset": 69696,
      "componentType": 5126,
      "count": 336,
      "max": [
        0.9433200359344482,
        0.9792420268058777,
        0.9429776668548584
      ],
      "min": [
        -0.9417816996574402,
        0.3317580223083496,
        -0.942980170249939
      ],
      "type": "VEC3"
    },
    {
      "bufferView": 1,
      "byteOffset": 21888,
      "componentType": 5126,
      "count": 336,
      "max": [
        0.7916110157966614,
        1.0
      ],
      "min": [
        0.6977660059928894,
        0.0
      ],
      "type": "VEC2"
    },
    {
      "bufferView": 0,
      "byteOffset": 45852,
      "componentType": 5125,
      "count": 1650,
      "type": "SCALAR"
    },
    {
      "bufferView": 2,
      "byteOffset": 73728,
      "componentType": 5126,
      "count": 8973,
      "max": [
        16.653539657592773,
        57.79343032836914,
        7.895471572875977
      ],
      "min": [
        -7.699357509613037,
        56.79343032836914,
        -7.343416213989258
      ],
      "type": "VEC3"
    },
    {
      "bufferView": 2,
      "byteOffset": 181404,
      "componentType": 5126,
      "count": 8973,
      "max": [
        1.0,
        1.0,
        1.0
      ],
      "min": [
        -1.0,
        -1.0,
        -1.0
      ],
      "type": "VEC3"
    },
    {
      "bufferView": 1,
      "byteOffset": 24576,
      "componentType": 5126,
      "count": 8973,
      "max": [
        0.9899809956550598,
        0.9970030188560486
      ],
      "min": [
        -0.009319360367953777,
        0.007794260047376156
      ],
      "type": "VEC2"
    },
    {
      "bufferView": 0,
      "byteOffset": 52452,
      "componentType": 5125,
      "count": 44196,
      "type": "SCALAR"
    },
    {
      "bufferView": 2,
      "byteOffset": 289080,
      "componentType": 5126,
      "count": 915,
      "max": [
        32.897621154785156,
        59.88228225708008,
        33.345829010009766
      ],
      "min": [
        -33.103179931640625,
        -54.54703903198242,
        -32.654972076416016
      ],
      "type": "VEC3"
    },
    {
      "bufferView": 2,
      "byteOffset": 300060,
      "componentType": 5126,
      "count": 915,
      "max": [
        1.0,
        0.45382601022720337,
        1.0
      ],
      "min": [
        -1.0,
        -0.3762381374835968,
        -1.0
      ],
      "type": "VEC3"
    },
    {
      "bufferView": 1,
      "byteOffset": 96360,
      "componentType": 5126,
      "count": 915,
      "max": [
        1.0,
        0.9994999766349792
      ],
      "min": [
        0.0,
        0.0004994799965061247
      ],
      "type": "VEC2"
    },
    {
      "bufferView": 0,
      "byteOffset": 229236,
      "componentType": 5125,
      "count": 5040,
      "type": "SCALAR"
    },
    {
      "bufferView": 2,
      "byteOffset": 311040,
      "componentType": 5126,
      "count": 1321,
      "max": [
        32.57781982421875,
        -51.197715759277344,
        33.026031494140625
      ],
      "min": [
        -32.78337860107422,
        -62.126869201660156,
        -32.335166931152344
      ],
      "type": "VEC3"
    },
    {
      "bufferView": 2,
      "byteOffset": 326892,
      "componentType": 5126,
      "count": 1321,
      "max": [
        0.9977790713310242,
        -0.06660936772823334,
        0.9977790713310242
      ],
      "min": [
        -0.9977790713310242,
        -1.0,
        -0.9977790713310242
      ],
      "type": "VEC3"
    },
    {
      "bufferView": 1,
      "byteOffset": 103680,
      "componentType": 5126,
      "count": 1321,
      "max": [
        3.997999906539917,
        3.997999906539917
      ],
      "min": [
        0.0019979500211775303,
        0.001998059917241335
      ],
      "type": "VEC2"
    },
    {
      "bufferView": 0,
      "byteOffset": 249396,
      "componentType": 5125,
      "count": 7740,
      "type": "SCALAR"
    }
  ],
  "asset": {
    "extras": {
      "author": "Serg (https://sketchfab.com/Serges)",
      "license": "CC-BY-4.0 (http://creativecommons.org/licenses/by/4.0/)",
      "source": "https://sketchfab.com/3d-models/ghana-organics-can-drink-9979447b2d9e454cb5d8b2841002b32b",
      "title": "Ghana Organics can drink"
    },
    "generator": "Sketchfab-12.67.0",
    "version": "2.0"
  },
  "bufferViews": [
    {
      "buffer": 0,
      "byteLength": 280356,
      "name": "floatBufferViews",
      "target": 34963
    },
    {
      "buffer": 0,
      "byteLength": 114248,
      "byteOffset": 280356,
      "byteStride": 8,
      "name": "floatBufferViews",
      "target": 34962
    },
    {
      "buffer": 0,
      "byteLength": 342744,
      "byteOffset": 394604,
      "byteStride": 12,
      "name": "floatBufferViews",
      "target": 34962
    }
  ],
  "buffers": [
    {
      "byteLength": 737348,
      "uri": "scene.bin"
    }
  ],
  "images": [
    {
      "uri": "textures/Material_0_baseColor.png"
    },
    {
      "uri": "textures/Material_4_baseColor.png"
    },
    {
      "uri": "textures/Material_4_metallicRoughness.png"
    },
    {
      "uri": "textures/Material_5_baseColor.png"
    },
    {
      "uri": "textures/print_area1_6_baseColor.png"
    }
  ],
  "materials": [
    {
      "doubleSided": true,
      "name": "Material_0",
      "pbrMetallicRoughness": {
        "baseColorTexture": {
          "index": 0
        },
        "metallicFactor": 0.0,
        "roughnessFactor": 0.7971160224
      }
    },
    {
      "doubleSided": true,
      "name": "Material_1",
      "pbrMetallicRoughness": {
        "baseColorFactor": [
          0.352941,
          0.352941,
          0.352941,
          1.0
        ],
        "metallicFactor": 0.0,
        "roughnessFactor": 0.8293955905
      }
    },
    {
      "doubleSided": true,
      "name": "Material_2",
      "pbrMetallicRoughness": {
        "baseColorFactor": [
          0.588235,
          0.588235,
          0.588235,
          1.0
        ],
        "metallicFactor": 0.0,
        "roughnessFactor": 0.8293955905
      }
    },
    {
      "doubleSided": true,
      "name": "Material_3",
      "pbrMetallicRoughness": {
        "baseColorFactor": [
          0.470588,
          0.470588,
          0.470588,
          1.0
        ],
        "metallicFactor": 0.0,
        "roughnessFactor": 0.8293955905
      }
    },
    {
      "doubleSided": true,
      "name": "Material_4",
      "pbrMetallicRoughness": {
        "baseColorTexture": {
          "index": 1
        },
        "metallicFactor": 0.0,
        "metallicRoughnessTexture": {
          "index": 2
        },
        "roughnessFactor": 0.03487042682926833
      }
    },
    {
      "doubleSided": true,
      "name": "Material_5",
      "pbrMetallicRoughness": {
        "baseColorTexture": {
          "index": 3
        },
        "metallicFactor": 0.0,
        "roughnessFactor": 0.7975571229
      }
    },
    {
      "doubleSided": true,
      "name": "print_area1_6",
      "pbrMetallicRoughness": {
        "baseColorTexture": {
          "index": 4
        },
        "metallicFactor": 0.0
      }
    },
    {
      "doubleSided": true,
      "name": "Material_7",
      "pbrMetallicRoughness": {
        "baseColorTexture": {
          "index": 1
        },
        "metallicFactor": 0.0,
        "roughnessFactor": 0.7975571229
      }
    }
  ],
  "meshes": [
    {
      "name": "Material_0",
      "primitives": [
        {
          "attributes": {
            "NORMAL": 1,
            "POSITION": 0,
            "TEXCOORD_0": 2
          },
          "indices": 3,
          "material": 0,
          "mode": 4
        }
      ]
    },
    {
      "name": "Material_1",
      "primitives": [
        {
          "attributes": {
            "NORMAL": 5,
            "POSITION": 4,
            "TEXCOORD_0": 6
          },
          "indices": 7,
          "material": 1,
          "mode": 4
        }
      ]
    },
    {
      "name": "Material_2",
      "primitives": [
        {
          "attributes": {
            "NORMAL": 9,
            "POSITION": 8,
            "TEXCOORD_0": 10
          },
          "indices": 11,
          "material": 2,
          "mode": 4
        }
      ]
    },
    {
      "name": "Material_3",
      "primitives": [
        {
          "attributes": {
            "NORMAL": 13,
            "POSITION": 12,
            "TEXCOORD_0": 14
          },
          "indices": 15,
          "material": 3,
          "mode": 4
        }
      ]
    },
    {
      "name": "Material_4",
      "primitives": [
        {
          "attributes": {
            "NORMAL": 17,
            "POSITION": 16,
            "TEXCOORD_0": 18
          },
          "indices": 19,
          "material": 4,
          "mode": 4
        }
      ]
    },
    {
      "name": "Material_5",
      "primitives": [
        {
          "attributes": {
            "NORMAL": 21,
            "POSITION": 20,
            "TEXCOORD_0": 22
          },
          "indices": 23,
          "material": 5,
          "mode": 4
        }
      ]
    },
    {
      "name": "print_area1_6",
      "primitives": [
        {
          "attributes": {
            "NORMAL": 25,
            "POSITION": 24,
            "TEXCOORD_0": 26
          },
          "indices": 27,
          "material": 6,
          "mode": 4
        }
      ]
    },
    {
      "name": "Material_7",
      "primitives": [
        {
          "attributes": {
            "NORMAL": 29,
            "POSITION": 28,
            "TEXCOORD_0": 30
          },
          "indices": 31,
          "material": 7,
          "mode": 4
        }
      ]
    }
  ],
  "nodes": [
    {
      "children": [
        1
      ],
      "matrix": [
        1.0,
        0.0,
        0.0,
        0.0,
        0.0,
        -0.003464214736595528,
        -0.9999939799308777,
        0.0,
        0.0,
        0.9999939799308777,
        -0.003464214736595528,
        0.0,
        0.0,
        -0.0011971852509304877,
        -0.002152743516489864,
        1.0
      ],
      "name": "Sketchfab_model"
    },
    {
      "children": [
        2,
        4
      ],
      "matrix": [
        1.0,
        0.0,
        0.0,
        0.0,
        0.0,
        -4.371139006309477e-08,
        0.999999999999999,
        0.0,
        0.0,
        -0.999999999999999,
        -4.371139006309477e-08,
        0.0,
        0.0,
        0.0,
        0.0,
        1.0
      ],
      "name": "Collada visual scene group"
    },
    {
      "children": [
        3
      ],
      "matrix": [
        -0.4919611440620932,
        0.2688627643701534,
        -0.8280622239109546,
        0.0,
        -0.00017260074304343957,
        0.9510908199283351,
        0.3089113504826766,
        0.0,
        0.87061713912724,
        0.15211530555235706,
        -0.4678533219659909,
        0.0,
        -0.2247868320800137,
        0.0446817448903154,
        -402.51767587631764,
        1.0
      ],
      "name": "camera"
    },
    {
      "name": "Camera"
    },
    {
      "children": [
        5,
        6,
        7,
        8,
        9,
        10,
        11,
        12
      ],
      "name": "root"
    },
    {
      "mesh": 0,
      "name": "Material_0"
    },
    {
      "mesh": 1,
      "name": "Material_1"
    },
    {
      "mesh": 2,
      "name": "Material_2"
    },
    {
      "mesh": 3,
      "name": "Material_3"
    },
    {
      "mesh": 4,
      "name": "Material_4"
    },
    {
      "mesh": 5,
      "name": "Material_5"
    },
    {
      "mesh": 6,
      "name": "print_area1_6"
    },
    {
      "mesh": 7,
      "name": "Material_7"
    }
  ],
  "samplers": [
    {
      "magFilter": 9729,
      "minFilter": 9987,
      "wrapS": 10497,
      "wrapT": 10497
    },
    {
      "magFilter": 9728,
      "minFilter": 9986,
      "wrapS": 10497,
      "wrapT": 10497
    },
    {
      "magFilter": 9729,
      "minFilter": 9987,
      "wrapS": 33071,
      "wrapT": 33071
    }
  ],
  "scene": 0,
  "scenes": [
    {
      "name": "Sketchfab_Scene",
      "nodes": [
        0
      ]
    }
  ],
  "textures": [
    {
      "sampler": 0,
      "source": 0
    },
    {
      "sampler": 0,
      "source": 1
    },
    {
      "sampler": 1,
      "source": 2
    },
    {
      "sampler": 0,
      "source": 3
    },
    {
      "sampler": 2,
      "source": 4
    }
  ]
}
